<svg width="640" height="480" xmlns="http://www.w3.org/2000/svg" xmlns:svg="http://www.w3.org/2000/svg">
 <!-- Created with SVG-edit - http://svg-edit.googlecode.com/ -->
 <g>
  <title>Layer 1</title>
  <rect id="svg_53" height="641.33333" width="738.66667" y="-75.33333" x="-20.66667" stroke-linecap="null" stroke-linejoin="null" stroke-dasharray="null" stroke-width="3" stroke="#ffff00" fill="#007fff"/>
 </g>
 <g>
  <title>Layer 2</title>
  <line stroke="#ff00ff" id="svg_1" y2="155.80769" x2="144.11539" y1="57.80769" x1="104.11538" stroke-width="19" fill="none"/>
  <line id="svg_2" y2="67.80769" x2="185.11538" y1="158.80769" x1="147.11538" stroke-linecap="null" stroke-linejoin="null" stroke-dasharray="null" stroke-width="19" stroke="#ff00ff" fill="none"/>
  <line id="svg_3" y2="65.80769" x2="182.11538" y1="153.80769" x1="227.11538" stroke-linecap="null" stroke-linejoin="null" stroke-dasharray="null" stroke-width="19" stroke="#ff00ff" fill="none"/>
  <line id="svg_4" y2="158.80769" x2="228.11538" y1="76.80769" x1="272.11538" stroke-linecap="null" stroke-linejoin="null" stroke-dasharray="null" stroke-width="19" stroke="#ff00ff" fill="none"/>
  <line stroke="#ff00ff" id="svg_5" y2="121.80769" x2="331.11538" y1="123.80769" x1="295.11538" stroke-linecap="null" stroke-linejoin="null" stroke-dasharray="null" stroke-width="19" fill="none"/>
  <line id="svg_6" y2="121.80769" x2="329.11538" y1="156.80769" x1="337.11538" stroke-linecap="null" stroke-linejoin="null" stroke-dasharray="null" stroke-width="19" stroke="#ff00ff" fill="none"/>
  <line id="svg_7" y2="161.80769" x2="347.11538" y1="169.80769" x1="310.11538" stroke-linecap="null" stroke-linejoin="null" stroke-dasharray="null" stroke-width="19" stroke="#ff00ff" fill="none"/>
  <line id="svg_8" y2="129.80769" x2="291.11538" y1="180.80769" x1="297.11538" stroke-linecap="null" stroke-linejoin="null" stroke-dasharray="null" stroke-width="19" stroke="#ff00ff" fill="none"/>
  <line id="svg_9" y2="41.80769" x2="334.11538" y1="155.80769" x1="390.11538" stroke-linecap="null" stroke-linejoin="null" stroke-dasharray="null" stroke-width="19" stroke="#ff00ff" fill="none"/>
  <line id="svg_10" y2="105.80769" x2="425.11538" y1="171.80769" x1="391.11538" stroke-linecap="null" stroke-linejoin="null" stroke-dasharray="null" stroke-width="19" stroke="#ff00ff" fill="none"/>
  <line id="svg_11" y2="102.80769" x2="414.11538" y1="169.80769" x1="471.11538" stroke-linecap="null" stroke-linejoin="null" stroke-dasharray="null" stroke-width="19" stroke="#ff00ff" fill="none"/>
  <line id="svg_12" y2="52.80769" x2="526.11538" y1="185.80769" x1="466.11538" stroke-linecap="null" stroke-linejoin="null" stroke-dasharray="null" stroke-width="19" stroke="#ff00ff" fill="none"/>
  <line id="svg_13" y2="225.80769" x2="145.11538" y1="259.80769" x1="222.11538" stroke-linecap="null" stroke-linejoin="null" stroke-dasharray="null" stroke-width="12" stroke="#56ffff" fill="none"/>
  <line id="svg_14" y2="220.80769" x2="145.11538" y1="282.80769" x1="126.11538" stroke-linecap="null" stroke-linejoin="null" stroke-dasharray="null" stroke-width="12" stroke="#56ffff" fill="none"/>
  <line id="svg_15" y2="279.80769" x2="123.11538" y1="337.80769" x1="177.11538" stroke-linecap="null" stroke-linejoin="null" stroke-dasharray="null" stroke-width="12" stroke="#56ffff" fill="none"/>
  <line id="svg_16" y2="401.80769" x2="120.11538" y1="352.80769" x1="183.11538" stroke-linecap="null" stroke-linejoin="null" stroke-dasharray="null" stroke-width="12" stroke="#56ffff" fill="none"/>
  <line id="svg_17" y2="361.80769" x2="211.11538" y1="313.80769" x1="223.11538" stroke-linecap="null" stroke-linejoin="null" stroke-dasharray="null" stroke-width="12" stroke="#56ffff" fill="none"/>
  <line id="svg_18" y2="382.80769" x2="255.11538" y1="375.80769" x1="217.11538" stroke-linecap="null" stroke-linejoin="null" stroke-dasharray="null" stroke-width="12" stroke="#56ffff" fill="none"/>
  <line stroke="#56ffff" id="svg_19" y2="338.80769" x2="275.11537" y1="374.80769" x1="249.11538" stroke-linecap="null" stroke-linejoin="null" stroke-dasharray="null" stroke-width="12" fill="none"/>
  <line id="svg_20" y2="313.80769" x2="225.11538" y1="334.80769" x1="265.11538" stroke-linecap="null" stroke-linejoin="null" stroke-dasharray="null" stroke-width="12" stroke="#56ffff" fill="none"/>
  <line id="svg_21" y2="274.80769" x2="318.11538" y1="266.80769" x1="403.11538" stroke-linecap="null" stroke-linejoin="null" stroke-dasharray="null" stroke-width="21" stroke="#00ff00" fill="none"/>
  <line stroke="#00ff00" id="svg_22" y2="273.8077" x2="313.11539" y1="430.8077" x1="317.11539" stroke-linecap="null" stroke-linejoin="null" stroke-dasharray="null" stroke-width="21" fill="none"/>
  <line id="svg_23" y2="439.80769" x2="307.11538" y1="396.80769" x1="393.11538" stroke-linecap="null" stroke-linejoin="null" stroke-dasharray="null" stroke-width="21" stroke="#00ff00" fill="none"/>
  <line id="svg_24" y2="345.80769" x2="438.11538" y1="347.80769" x1="392.11538" stroke-linecap="null" stroke-linejoin="null" stroke-dasharray="null" stroke-width="21" stroke="#00ff00" fill="none"/>
  <line id="svg_25" y2="348.80769" x2="443.11538" y1="417.80769" x1="428.11538" stroke-linecap="null" stroke-linejoin="null" stroke-dasharray="null" stroke-width="21" stroke="#00ff00" fill="none"/>
  <line id="svg_26" y2="428.80769" x2="433.11538" y1="425.80769" x1="388.11538" stroke-linecap="null" stroke-linejoin="null" stroke-dasharray="null" stroke-width="21" stroke="#00ff00" fill="none"/>
  <line id="svg_27" y2="415.80769" x2="390.11538" y1="356.80769" x1="390.11538" stroke-linecap="null" stroke-linejoin="null" stroke-dasharray="null" stroke-width="21" stroke="#00ff00" fill="none"/>
  <line id="svg_28" y2="368.80769" x2="494.11538" y1="366.80769" x1="451.11538" stroke-linecap="null" stroke-linejoin="null" stroke-dasharray="null" stroke-width="21" stroke="#00ff00" fill="none"/>
  <line id="svg_29" y2="366.80769" x2="494.11538" y1="425.80769" x1="473.11538" stroke-linecap="null" stroke-linejoin="null" stroke-dasharray="null" stroke-width="21" stroke="#00ff00" fill="none"/>
  <line id="svg_30" y2="427.80769" x2="470.11538" y1="427.80769" x1="447.11538" stroke-linecap="null" stroke-linejoin="null" stroke-dasharray="null" stroke-width="21" stroke="#00ff00" fill="none"/>
  <line id="svg_31" y2="428.80769" x2="441.11538" y1="369.80769" x1="454.11538" stroke-linecap="null" stroke-linejoin="null" stroke-dasharray="null" stroke-width="21" stroke="#00ff00" fill="none"/>
  <line id="svg_32" y2="436.80769" x2="499.11538" y1="353.80769" x1="505.11538" stroke-linecap="null" stroke-linejoin="null" stroke-dasharray="null" stroke-width="21" stroke="#00ff00" fill="none"/>
  <line id="svg_33" y2="435.80769" x2="496.11538" y1="430.80769" x1="556.11538" stroke-linecap="null" stroke-linejoin="null" stroke-dasharray="null" stroke-width="21" stroke="#00ff00" fill="none"/>
  <line id="svg_34" y2="267.33333" x2="516.66667" y1="224.66667" x1="516.66667" stroke-linecap="null" stroke-linejoin="null" stroke-dasharray="null" stroke-width="16" stroke="#ff7f00" fill="none"/>
  <line id="svg_35" y2="278" x2="544.66667" y1="222" x1="543.33333" stroke-linecap="null" stroke-linejoin="null" stroke-dasharray="null" stroke-width="16" stroke="#ff7f00" fill="none"/>
  <line id="svg_36" y2="278" x2="572.66667" y1="224.66667" x1="572.66667" stroke-linecap="null" stroke-linejoin="null" stroke-dasharray="null" stroke-width="16" stroke="#ff7f00" fill="none"/>
  <line id="svg_37" y2="338" x2="516.66667" y1="295.33333" x1="512.66667" stroke-linecap="null" stroke-linejoin="null" stroke-dasharray="null" stroke-width="16" stroke="#ff7f00" fill="none"/>
  <line id="svg_38" y2="342" x2="548.66667" y1="295.33333" x1="543.33333" stroke-linecap="null" stroke-linejoin="null" stroke-dasharray="null" stroke-width="16" stroke="#ff7f00" fill="none"/>
  <line id="svg_39" y2="344.66667" x2="576.66667" y1="298" x1="575.33333" stroke-linecap="null" stroke-linejoin="null" stroke-dasharray="null" stroke-width="16" stroke="#ff7f00" fill="none"/>
  <line id="svg_40" y2="298" x2="540.66667" y1="266" x1="512.66667" stroke-linecap="null" stroke-linejoin="null" stroke-dasharray="null" stroke-width="16" stroke="#ff7f00" fill="none"/>
  <line id="svg_41" y2="270" x2="540.66667" y1="299.33333" x1="576.66667" stroke-linecap="null" stroke-linejoin="null" stroke-dasharray="null" stroke-width="16" stroke="#ff7f00" fill="none"/>
  <line id="svg_42" y2="379.33333" x2="538" y1="346" x1="578" stroke-linecap="null" stroke-linejoin="null" stroke-dasharray="null" stroke-width="16" stroke="#ff7f00" fill="none"/>
  <line id="svg_43" y2="376.66667" x2="538" y1="338" x1="512.66667" stroke-linecap="null" stroke-linejoin="null" stroke-dasharray="null" stroke-width="16" stroke="#ff7f00" fill="none"/>
  <line id="svg_44" y2="280.66667" x2="523.33333" y1="294" x1="512.66667" stroke-linecap="null" stroke-linejoin="null" stroke-dasharray="null" stroke-width="16" stroke="#ff7f00" fill="none"/>
  <line id="svg_45" y2="271.33333" x2="579.33333" y1="287.33333" x1="564.66667" stroke-linecap="null" stroke-linejoin="null" stroke-dasharray="null" stroke-width="16" stroke="#ff7f00" fill="none"/>
  <line id="svg_46" y2="182" x2="540.66667" y1="222" x1="572.66667" stroke-linecap="null" stroke-linejoin="null" stroke-dasharray="null" stroke-width="16" stroke="#ff7f00" fill="none"/>
  <line id="svg_47" y2="234" x2="515.33333" y1="182" x1="540.66667" stroke-linecap="null" stroke-linejoin="null" stroke-dasharray="null" stroke-width="16" stroke="#ff7f00" fill="none"/>
  <polygon stroke-width="16" stroke="#ff0000" points="390.7236022949219,248.66666221618652 390.1698303222656,263.113317489624 388.5118408203125,277.4751949310303 385.7593078613281,291.66798973083496 381.9283905029297,305.6084499359131 377.0415954589844,319.2147731781006 371.1275939941406,332.4070644378662 364.2210693359375,345.1079616546631 356.36256408691406,357.2428798675537 347.59820556640625,368.74062156677246 337.97943115234375,379.5337429046631 327.5626525878906,389.5588893890381 316.40904235839844,398.75719261169434 304.5840301513672,407.07472801208496 292.15699768066406,414.46266746520996 279.2008972167969,420.8776454925537 265.79176330566406,426.28200340270996 252.00826263427734,430.64406394958496 237.9312973022461,433.9381923675537 223.64347076416016,436.1450710296631 209.22863006591797,437.2517604827881 194.77136993408203,437.2517604827881 180.3565330505371,436.1450710296631 166.06870651245117,433.9381923675537 151.99173736572266,430.64406394958496 138.2082395553589,426.28200340270996 124.79909586906433,420.8776454925537 111.84299850463867,414.46266746520996 99.41597747802734,407.07472801208496 87.59096145629883,398.75719261169434 76.43733978271484,389.5588893890381 66.02057266235352,379.5337429046631 56.40178680419922,368.74062156677246 47.637428283691406,357.2428798675537 39.7789306640625,345.1079616546631 32.872413635253906,332.4070644378662 26.958404541015625,319.2147731781006 22.07160186767578,305.6084499359131 18.240699768066406,291.66798973083496 15.488166809082031,277.4751949310303 13.830154418945312,263.113317489624 13.276405334472656,248.66666221618652 13.830154418945312,234.2200222015381 15.488166809082031,219.85814476013184 18.240699768066406,205.6653347015381 22.07160186767578,191.72487449645996 26.958404541015625,178.11856651306152 32.872413635253906,164.92625999450684 39.7789306640625,152.22538566589355 47.637428283691406,140.0904598236084 56.40178680419922,128.5927028656006 66.02057266235352,117.79958915710449 76.43733978271484,107.77445793151855 87.59096145629883,98.57613945007324 99.41597747802734,90.25860404968262 111.84299850463867,82.87067604064941 124.79909586906433,76.45570182800293 138.2082395553589,71.05133247375488 151.99173736572266,66.68927955627441 166.06870651245117,63.39514350891113 180.3565330505371,61.18825340270996 194.77136993408203,60.081560134887695 209.22863006591797,60.081560134887695 223.64347076416016,61.18825340270996 237.9312973022461,63.39514350891113 252.00826263427734,66.68927955627441 265.79176330566406,71.05133247375488 279.2008972167969,76.45570182800293 292.15699768066406,82.87067604064941 304.5840301513672,90.25860404968262 316.40904235839844,98.57613945007324 327.5626525878906,107.77445793151855 337.97943115234375,117.79958915710449 347.59820556640625,128.5927028656006 356.36256408691406,140.0904598236084 364.2210693359375,152.22538566589355 371.1275939941406,164.92625999450684 377.0415954589844,178.11856651306152 381.9283905029297,191.72487449645996 385.7593078613281,205.6653347015381 388.5118408203125,219.85814476013184 390.1698303222656,234.2200222015381 390.7236022949219,248.66666221618652 " strokeWidth="16" strokecolor="#ff7f00" fill="none" edge="14.45726" orient="x" sides="82" shape="regularPoly" id="svg_49" cy="219.33333" cx="74"/>
  <polygon stroke-width="10" stroke="#ffff00" points="280.66666666666663,145.33651335756787 296.1834496586491,189.976313759294 343.43337235937645,190.93919438611778 305.7733489437506,219.4909889122195 319.4586241466228,264.7258822684315 280.66666666666663,237.73206132363944 241.87470918671045,264.7258822684315 255.5599843895827,219.4909889122195 217.89996097395678,190.93919438611778 265.14988367468413,189.976313759294 280.66666666666663,145.33651335756787 296.1834496586491,189.976313759294 " strokeWidth="16" strokecolor="#ff0000" fill="none" orient="point" r2="26.39873" r="65.99682" point="20" shape="star" id="svg_51" cy="211.33333" cx="280.66667"/>
  <polygon stroke-width="3" stroke="#ffff00" points="580.6666469573975,-117.13423156738281 590.4574184417725,-22.483142852783203 629.0177822113037,-109.47616195678711 609.080587387085,-16.432113647460938 672.63600730896,-87.25158500671387 624.922384262085,-4.9223785400390625 707.2516078948975,-52.63599395751953 636.4320888519287,10.919418334960938 729.4761562347412,-9.017803192138672 642.4831142425537,29.542564392089844 737.1342372894287,39.333335876464844 642.4831142425537,49.12409973144531 729.4761562347412,87.68446350097656 636.4320888519287,67.74725341796875 707.2516078948975,131.3026580810547 624.922384262085,83.58905029296875 672.63600730896,165.9182586669922 609.080587387085,95.09878540039062 629.0177822113037,188.14283752441406 590.4574184417725,101.14981079101562 580.6666469573975,195.8009033203125 570.8758754730225,101.14981079101562 532.3155422210693,188.14283752441406 552.2527675628662,95.09878540039062 488.6973476409912,165.9182586669922 536.4109706878662,83.58905029296875 454.0817470550537,131.3026580810547 524.9012050628662,67.74725341796875 431.85716819763184,87.68446350097656 518.8501796722412,49.12409973144531 424.19911766052246,39.333335876464844 518.8501796722412,29.542564392089844 431.85716819763184,-9.017803192138672 524.9012050628662,10.919418334960938 454.0817470550537,-52.63599395751953 536.4109706878662,-4.9223785400390625 488.6973476409912,-87.25158500671387 552.2527675628662,-16.432113647460938 532.3155422210693,-109.47616195678711 570.8758754730225,-22.483142852783203 580.6666469573975,-117.13423156738281 590.4574184417725,-22.483142852783203 " strokeWidth="10" strokecolor="#ffff00" fill="#ff007f" orient="point" r2="62.58703" r="156.46756" point="20" shape="star" id="svg_52" cy="103.33333" cx="551.33333"/>
 </g>
</svg>